<svg xmlns="http://www.w3.org/2000/svg" viewBox="0 0 1010 640" id="z21" fill="currentColor">
  <!-- Generator: Adobe Illustrator 30.1.0, SVG Export Plug-In . SVG Version: 2.1.1 Build 136)  -->
  <path d="M22,128c0-17.7,14.3-32,32-32h320c12.4,0,23.7,7.2,29,18.4,5.3,11.2,3.6,24.5-4.4,34.1L122.3,480h251.7c17.7,0,32,14.3,32,32s-14.3,32-32,32H54c-12.4,0-23.7-7.2-29-18.4s-3.6-24.5,4.4-34.1L305.7,160H54c-17.7,0-32-14.3-32-32h0Z"/>
  <path d="M427.05,128c0-17.7,14.3-32,32-32h171c60.2,0,109,48.8,109,109,0,43.8-26.2,83.3-66.4,100.4l-139.1,59c-35.5,15-58.5,49.8-58.5,88.3v27.3h224c17.7,0,32,14.3,32,32s-14.3,32-32,32h-256c-17.7,0-32-14.3-32-32v-59.3c0-64.2,38.4-122.2,97.5-147.3l139.1-59c16.6-7.1,27.4-23.4,27.4-41.4,0-24.9-20.2-45-45-45h-171c-17.7,0-32-14.3-32-32h0Z"/>
  <path d="M771.05,96c-17.7,0-32,14.3-32,32s14.3,32,32,32h64v320h-64c-17.7,0-32,14.3-32,32s14.3,32,32,32h192c17.7,0,32-14.3,32-32s-14.3-32-32-32h-64V128c0-17.7-14.3-32-32-32h-96Z"/>
</svg>
