<svg xmlns="http://www.w3.org/2000/svg" width="32" height="24" viewBox="0 0 32 24">
  <rect x="16" width="16" height="24" fill="#012169"/>
  <polygon points="14,12 30,24 34,24 18,12" fill="#FFFFFF"/>
  <polygon points="14,12 30,0 34,0 18,12" fill="#FFFFFF"/>
  <polygon points="16,12 32,24 33,24 17,12" fill="#C8102E"/>
  <polygon points="16,12 32,0 31,0 15,12" fill="#C8102E"/>
  <rect x="16" width="2" height="24" fill="#FFFFFF"/>
  <rect x="16" y="9.6" width="16" height="4.8" fill="#FFFFFF"/>
  <rect x="16" width="1.5" height="24" fill="#C8102E"/>
  <rect x="16" y="10.4"  width="16" height="3.2" fill="#C8102E"/>


  <svg xmlns="http://www.w3.org/2000/svg" width="32" height="24" viewBox="0 0 32 24">
    <rect width="16" height="24" fill="#B31942"/>
    <g fill="#FFFFFF">
      <rect y="1.84" width="16" height="1.85"/>
      <rect y="5.54" width="16" height="1.85"/>
      <rect y="9.23" width="16" height="1.85"/>
      <rect y="12.92" width="16" height="1.85"/>
      <rect y="16.6" width="16" height="1.85"/>
      <rect y="20.31" width="16" height="1.85"/>
    </g>
    <rect width="12.8" height="12.92" fill="#0A3161"/>
    <g fill="#FFFFFF">
      <polygon
        points="1.07 0.55 1.288 1.064 1.784 1.064 1.424 1.378 1.506 1.882 1.07 1.64 0.634 1.882 0.716 1.378 0.356 1.064 0.852 1.064"
        stroke="black"
        stroke-width="0.02"
      />
      <polygon
        points="3.21 0.55 3.428 1.064 3.924 1.064 3.564 1.378 3.646 1.882 3.21 1.64 2.774 1.882 2.856 1.378 2.496 1.064 2.992 1.064"
        stroke="black"
        stroke-width="0.02"
      />
      <polygon
        points="5.35 0.55 5.568 1.064 6.064 1.064 5.704 1.378 5.786 1.882 5.35 1.64 4.914 1.882 4.996 1.378 4.636 1.064 5.132 1.064"
        stroke="black"
        stroke-width="0.02"
      />
      <polygon
        points="7.49 0.55 7.708 1.064 8.204 1.064 7.844 1.378 7.926 1.882 7.49 1.64 7.054 1.882 7.136 1.378 6.776 1.064 7.272 1.064"
        stroke="black"
        stroke-width="0.02"
      />
      <polygon
        points="9.63 0.55 9.848 1.064 10.344 1.064 9.984 1.378 10.066 1.882 9.63 1.64 9.194 1.882 9.276 1.378 8.916 1.064 9.412 1.064"
        stroke="black"
        stroke-width="0.02"
      />
      <polygon
        points="11.77 0.55 11.988 1.064 12.484 1.064 12.124 1.378 12.206 1.882 11.77 1.64 11.334 1.882 11.416 1.378 11.056 1.064 11.552 1.064"
        stroke="black"
        stroke-width="0.02"
      />

      <polygon
        points="2.14 1.84 2.358 2.354 2.854 2.354 2.494 2.668 2.576 3.172 2.14 2.93 1.704 3.172 1.786 2.668 1.426 2.354 1.922 2.354"
        stroke="black"
        stroke-width="0.02"
      />
      <polygon
        points="4.28 1.84 4.498 2.354 4.994 2.354 4.634 2.668 4.716 3.172 4.28 2.93 3.844 3.172 3.926 2.668 3.566 2.354 4.062 2.354"
        stroke="black"
        stroke-width="0.02"
      />
      <polygon
        points="6.42 1.84 6.638 2.354 7.134 2.354 6.774 2.668 6.856 3.172 6.42 2.93 5.984 3.172 6.066 2.668 5.706 2.354 6.202 2.354"
        stroke="black"
        stroke-width="0.02"
      />
      <polygon
        points="8.56 1.84 8.778 2.354 9.274 2.354 8.914 2.668 8.996 3.172 8.56 2.93 8.124 3.172 8.206 2.668 7.846 2.354 8.342 2.354"
        stroke="black"
        stroke-width="0.02"
      />
      <polygon
        points="10.7 1.84 10.918 2.354 11.414 2.354 11.054 2.668 11.136 3.172 10.7 2.93 10.264 3.172 10.346 2.668 9.986 2.354 10.482 2.354"
        stroke="black"
        stroke-width="0.02"
      />

      <polygon
        points="1.07 3.13 1.288 3.644 1.784 3.644 1.424 3.958 1.506 4.462 1.07 4.22 0.634 4.462 0.716 3.958 0.356 3.644 0.852 3.644"
        stroke="black"
        stroke-width="0.02"
      />
      <polygon points="3.21 3.13 3.428 3.644 3.924 3.644 3.564 3.958 3.646 4.462 3.21 4.22 2.774 4.462 2.856 3.958 2.496 3.644 2.992 3.644"
        stroke="black"
        stroke-width="0.02"/>
      <polygon
          points="5.35 3.13 5.568 3.644 6.064 3.644 5.704 3.958 5.786 4.462 5.35 4.22 4.914 4.462 4.996 3.958 4.636 3.644 5.132 3.644"
          stroke="black"
          stroke-width="0.02"
      />
      <polygon
          points="7.49 3.13 7.708 3.644 8.204 3.644 7.844 3.958 7.926 4.462 7.49 4.22 7.054 4.462 7.136 3.958 6.776 3.644 7.272 3.644"
          stroke="black"
          stroke-width="0.02"
          />
      <polygon
          points="9.63 3.13 9.848 3.644 10.344 3.644 9.984 3.958 10.066 4.462 9.63 4.22 9.194 4.462 9.276 3.958 8.916 3.644 9.412 3.644"
          stroke="black"
          stroke-width="0.02"
          />
      <polygon
          points="11.77 3.13 11.988 3.644 12.484 3.644 12.124 3.958 12.206 4.462 11.77 4.22 11.334 4.462 11.416 3.958 11.056 3.644 11.552 3.644"
          stroke="black"
          stroke-width="0.02"
          />
      <polygon points="2.14 4.42 2.358 4.934 2.854 4.934 2.494 5.248 2.576 5.752 2.14 5.51 1.704 5.752 1.786 5.248 1.426 4.934 1.922 4.934
"
          stroke="black"
          stroke-width="0.02"
          />
      <polygon
          points="4.28 4.42 4.498 4.934 4.994 4.934 4.634 5.248 4.716 5.752 4.28 5.51 3.844 5.752 3.926 5.248 3.566 4.934 4.062 4.934"
          stroke="black"
          stroke-width="0.02"
          />
      <polygon
          points="6.42 4.42 6.638 4.934 7.134 4.934 6.774 5.248 6.856 5.752 6.42 5.51 5.984 5.752 6.066 5.248 5.706 4.934 6.202 4.934"
          stroke="black"
          stroke-width="0.02"
          />
      <polygon
          points="8.56 4.42 8.778 4.934 9.274 4.934 8.914 5.248 8.996 5.752 8.56 5.51 8.124 5.752 8.206 5.248 7.846 4.934 8.342 4.934"
          stroke="black"
          stroke-width="0.02"
          />
      <polygon
          points="10.7 4.42 10.918 4.934 11.414 4.934 11.054 5.248 11.136 5.752 10.7 5.51 10.264 5.752 10.346 5.248 9.986 4.934 10.482 4.934"
          stroke="black"
          stroke-width="0.02"
          />
      <polygon
          points="1.07 5.71 1.288 6.224 1.784 6.224 1.424 6.538 1.506 7.042 1.07 6.8 0.634 7.042 0.716 6.538 0.356 6.224 0.852 6.224"
          stroke="black"
          stroke-width="0.02"
          />
      <polygon
          points="3.21 5.71 3.428 6.224 3.924 6.224 3.564 6.538 3.646 7.042 3.21 6.8 2.774 7.042 2.856 6.538 2.496 6.224 2.992 6.224"
          stroke="black"
          stroke-width="0.02"
          />
      <polygon
          points="5.35 5.71 5.568 6.224 6.064 6.224 5.704 6.538 5.786 7.042 5.35 6.8 4.914 7.042 4.996 6.538 4.636 6.224 5.132 6.224"
          stroke="black"
          stroke-width="0.02"
          />
      <polygon
          points="7.49 5.71 7.708 6.224 8.204 6.224 7.844 6.538 7.926 7.042 7.49 6.8 7.054 7.042 7.136 6.538 6.776 6.224 7.272 6.224"
          stroke="black"
          stroke-width="0.02"
          />
      <polygon
          points="9.63 5.71 9.848 6.224 10.344 6.224 9.984 6.538 10.066 7.042 9.63 6.8 9.194 7.042 9.276 6.538 8.916 6.224 9.412 6.224"
          stroke="black"
          stroke-width="0.02"
          />
      <polygon
          points="11.77 5.71 11.988 6.224 12.484 6.224 12.124 6.538 12.206 7.042 11.77 6.8 11.334 7.042 11.416 6.538 11.056 6.224 11.552 6.224"
          stroke="black"
          stroke-width="0.02"
          />
      <polygon
          points="2.14 6.99 2.358 7.504 2.854 7.504 2.494 7.818 2.576 8.322 2.14 8.08 1.704 8.322 1.786 7.818 1.426 7.504 1.922 7.504"
          stroke="black"
          stroke-width="0.02"
          />
      <polygon
          points="4.28 6.99 4.498 7.504 4.994 7.504 4.634 7.818 4.716 8.322 4.28 8.08 3.844 8.322 3.926 7.818 3.566 7.504 4.062 7.504"
          stroke="black"
          stroke-width="0.02"
          />
      <polygon
          points="6.42 6.99 6.638 7.504 7.134 7.504 6.774 7.818 6.856 8.322 6.42 8.08 5.984 8.322 6.066 7.818 5.706 7.504 6.202 7.504"
          stroke="black"
          stroke-width="0.02"
          />
      <polygon
          points="8.56 6.99 8.778 7.504 9.274 7.504 8.914 7.818 8.996 8.322 8.56 8.08 8.124 8.322 8.206 7.818 7.846 7.504 8.342 7.504"
          stroke="black"
          stroke-width="0.02"
          />
      <polygon
          points="10.7 6.99 10.918 7.504 11.414 7.504 11.054 7.818 11.136 8.322 10.7 8.08 10.264 8.322 10.346 7.818 9.986 7.504 10.482 7.504"
          stroke="black"
          stroke-width="0.02"
          />
      <polygon
          points="1.07 8.28 1.288 8.794 1.784 8.794 1.424 9.108 1.506 9.612 1.07 9.37 0.634 9.612 0.716 9.108 0.356 8.794 0.852 8.794"
          stroke="black"
          stroke-width="0.02"
          />
      <polygon
          points="3.21 8.28 3.428 8.794 3.924 8.794 3.564 9.108 3.646 9.612 3.21 9.37 2.774 9.612 2.856 9.108 2.496 8.794 2.992 8.794"
          stroke="black"
          stroke-width="0.02"
          />
      <polygon
          points="5.35 8.28 5.568 8.794 6.064 8.794 5.704 9.108 5.786 9.612 5.35 9.37 4.914 9.612 4.996 9.108 4.636 8.794 5.132 8.794"
          stroke="black"
          stroke-width="0.02"
          />
      <polygon
          points="7.49 8.28 7.708 8.794 8.204 8.794 7.844 9.108 7.926 9.612 7.49 9.37 7.054 9.612 7.136 9.108 6.776 8.794 7.272 8.794"
          stroke="black"
          stroke-width="0.02"
          />
      <polygon
          points="9.63 8.28 9.848 8.794 10.344 8.794 9.984 9.108 10.066 9.612 9.63 9.37 9.194 9.612 9.276 9.108 8.916 8.794 9.412 8.794"
          stroke="black"
          stroke-width="0.02"
          />
      <polygon
          points="11.77 8.28 11.988 8.794 12.484 8.794 12.124 9.108 12.206 9.612 11.77 9.37 11.334 9.612 11.416 9.108 11.056 8.794 11.552 8.794"
          stroke="black"
          stroke-width="0.02"
          />
      <polygon
          points="2.14 9.57 2.358 10.084 2.854 10.084 2.494 10.398 2.576 10.902 2.14 10.66 1.704 10.902 1.786 10.398 1.426 10.084 1.922 10.084"
          stroke="black"
          stroke-width="0.02"
          />
      <polygon
          points="4.28 9.57 4.498 10.084 4.994 10.084 4.634 10.398 4.716 10.902 4.28 10.66 3.844 10.902 3.926 10.398 3.566 10.084 4.062 10.084"
          stroke="black"
          stroke-width="0.02"
          />
      <polygon
          points="6.42 9.57 6.638 10.084 7.134 10.084 6.774 10.398 6.856 10.902 6.42 10.66 5.984 10.902 6.066 10.398 5.706 10.084 6.202 10.084"
          stroke="black"
          stroke-width="0.02"
          />
      <polygon
          points="8.56 9.57 8.778 10.084 9.274 10.084 8.914 10.398 8.996 10.902 8.56 10.66 8.124 10.902 8.206 10.398 7.846 10.084 8.342 10.084"
          stroke="black"
          stroke-width="0.02"
          />
      <polygon
          points="10.7 9.57 10.918 10.084 11.414 10.084 11.054 10.398 11.136 10.902 10.7 10.66 10.264 10.902 10.346 10.398 9.986 10.084 10.482 10.084"
          stroke="black"
          stroke-width="0.02"
          />
      <polygon
          points="1.07 10.86 1.288 11.374 1.784 11.374 1.424 11.688 1.506 12.192 1.07 11.95 0.634 12.192 0.716 11.688 0.356 11.374 0.852 11.374"
          stroke="black"
          stroke-width="0.02"
          />
      <polygon
          points="3.21 10.86 3.428 11.374 3.924 11.374 3.564 11.688 3.646 12.192 3.21 11.95 2.774 12.192 2.856 11.688 2.496 11.374 2.992 11.374"
          stroke="black"
          stroke-width="0.02"
          />
      <polygon
          points="5.35 10.86 5.568 11.374 6.064 11.374 5.704 11.688 5.786 12.192 5.35 11.95 4.914 12.192 4.996 11.688 4.636 11.374 5.132 11.374"
          stroke="black"
          stroke-width="0.02"
          />
      <polygon
          points="7.49 10.86 7.708 11.374 8.204 11.374 7.844 11.688 7.926 12.192 7.49 11.95 7.054 12.192 7.136 11.688 6.776 11.374 7.272 11.374"
          stroke="black"
          stroke-width="0.02"
          />
      <polygon
          points="9.63 10.86 9.848 11.374 10.344 11.374 9.984 11.688 10.066 12.192 9.63 11.95 9.194 12.192 9.276 11.688 8.916 11.374 9.412 11.374"
          stroke="black"
          stroke-width="0.02"
          />
      <polygon
          points="11.77 10.86 11.988 11.374 12.484 11.374 12.124 11.688 12.206 12.192 11.77 11.95 11.334 12.192 11.416 11.688 11.056 11.374 11.552 11.374"
          stroke="black"
          stroke-width="0.02"
          />
    </g>
  </svg>
</svg>
